<svg width="94" height="30" viewBox="0 0 94 30" fill="none" xmlns="http://www.w3.org/2000/svg">
<path d="M18.0847 29.5C16.6221 29.5 15.6248 29.0335 15.093 28.1005C14.5611 27.1674 14.2952 25.9306 14.2952 24.39C13.7411 24.5419 13.1539 24.6612 12.5334 24.748C11.9128 24.8565 11.2592 24.9108 10.5721 24.9108C8.6663 24.9108 6.94883 24.531 5.41972 23.7716C3.91279 22.9905 2.7161 21.797 1.82966 20.1914C0.943218 18.5857 0.5 16.5568 0.5 14.1049C0.5 12.9115 0.710528 11.6856 1.13159 10.427C1.55265 9.16854 2.16207 7.95342 2.95986 6.78171C3.77982 5.58829 4.78814 4.52507 5.98483 3.59203C7.20368 2.6373 8.6109 1.88871 10.2065 1.34624C11.8021 0.782079 13.5749 0.5 15.5251 0.5C16.7218 0.5 17.7966 0.662738 18.7495 0.988215C19.7246 1.31369 20.4891 1.80191 21.0432 2.45286C21.5972 3.08211 21.8742 3.87412 21.8742 4.82884C21.8742 5.76188 21.6526 6.54303 21.2094 7.17228C20.7883 7.80153 20.2232 8.2789 19.5141 8.60438C18.827 8.90815 18.0736 9.06005 17.2537 9.06005C16.2786 9.06005 15.3257 8.82137 14.3949 8.344C13.4641 7.86663 12.7106 7.16143 12.1345 6.2284C11.3589 6.59727 10.6276 7.22653 9.94055 8.11616C9.27572 8.9841 8.74386 10.0039 8.34497 11.1756C7.94607 12.3474 7.74662 13.5624 7.74662 14.821C7.74662 16.6437 8.12335 17.9889 8.87683 18.8569C9.6303 19.7031 10.5167 20.1263 11.5361 20.1263C12.2453 20.1263 12.9655 19.931 13.6968 19.5404C14.4503 19.1498 15.1262 18.5857 15.7246 17.8479C15.4586 17.2838 15.1705 16.7196 14.8603 16.1554C14.5722 15.5696 14.2952 14.9945 14.0292 14.4304C14.9822 13.8012 16.0127 13.2587 17.1207 12.803C18.2509 12.3474 19.3589 12.1195 20.4448 12.1195C21.3978 12.1195 22.0294 12.3691 22.3396 12.8681C22.672 13.3672 22.8382 13.9965 22.8382 14.7559C22.8382 15.2333 22.7385 15.8733 22.539 16.6762C22.3618 17.4791 22.1512 18.3687 21.9074 19.3451C21.6858 20.2998 21.4753 21.2872 21.2759 22.307C21.0986 23.3268 21.0099 24.2924 21.0099 25.2037C21.0099 25.8113 21.0875 26.3754 21.2426 26.8962C21.3978 27.4169 21.6193 27.8401 21.9074 28.1655C21.2869 28.5995 20.6332 28.925 19.9462 29.142C19.2814 29.3806 18.6608 29.5 18.0847 29.5ZM34.4953 24.9108C32.4343 24.9108 30.6947 24.5528 29.2764 23.8367C27.858 23.1207 26.7833 22.1225 26.052 20.8423C25.3428 19.5404 24.9882 18.0432 24.9882 16.3507C24.9882 14.5932 25.3096 12.9983 25.9522 11.5662C26.6171 10.1124 27.5368 8.86476 28.7113 7.82323C29.8858 6.78171 31.2487 5.97886 32.8 5.4147C34.3734 4.85055 36.0687 4.56846 37.8859 4.56846C40.0355 4.56846 41.62 5.03498 42.6394 5.96801C43.6588 6.90105 44.1685 8.07277 44.1685 9.48317C44.1685 10.6982 43.7586 11.8483 42.9386 12.9332C42.1408 13.9965 40.8444 14.8644 39.0493 15.537C37.2543 16.188 34.8609 16.5243 31.8692 16.546C31.9357 17.9348 32.2571 19.0305 32.8332 19.8333C33.4315 20.6145 34.1739 21.0051 35.0604 21.0051C35.5036 21.0051 35.9689 20.9074 36.4565 20.7121C36.9441 20.4951 37.354 20.1263 37.6864 19.6055C38.0189 19.063 38.1851 18.3253 38.1851 17.3923C39.692 17.3923 40.8776 17.555 41.7419 17.8805C42.6062 18.2059 43.0383 18.7918 43.0383 19.6381C43.0383 20.4192 42.6948 21.2221 42.0078 22.0466C41.3208 22.8495 40.3347 23.533 39.0493 24.0971C37.7862 24.6396 36.2681 24.9108 34.4953 24.9108ZM32.1684 13.9422C33.7862 13.812 35.0826 13.5191 36.0576 13.0634C37.0327 12.6077 37.7419 12.087 38.1851 11.5011C38.6283 10.9153 38.8499 10.3728 38.8499 9.87374C38.8499 9.43977 38.7169 9.08175 38.451 8.79966C38.1851 8.51758 37.8084 8.37654 37.3208 8.37654C36.523 8.37654 35.7806 8.64777 35.0936 9.19024C34.4066 9.7327 33.8083 10.4379 33.2986 11.3058C32.811 12.1521 32.4343 13.0309 32.1684 13.9422ZM51.057 24.9108C49.6609 24.9108 48.6636 24.5636 48.0653 23.8692C47.4669 23.1749 47.1678 22.1768 47.1678 20.8749C47.1678 20.4192 47.2342 19.7249 47.3672 18.7918C47.5002 17.8371 47.6664 16.7847 47.8658 15.6347C48.0875 14.463 48.3202 13.2912 48.5639 12.1195C48.8076 10.9478 49.0403 9.90629 49.262 8.99495L47.5334 6.39113C48.442 5.89207 49.4171 5.46895 50.4587 5.12177C51.5224 4.7529 52.5972 4.56846 53.6831 4.56846C54.6138 4.56846 55.3009 4.7963 55.744 5.25197C56.1872 5.68593 56.4089 6.28265 56.4089 7.04209C56.4089 7.60625 56.3313 8.1921 56.1762 8.79966C56.021 9.40722 55.8438 9.92799 55.6443 10.362L55.9767 10.5247C57.2842 8.33315 58.7136 6.79255 60.2649 5.90292C61.8162 5.01328 63.4006 4.56846 65.0184 4.56846C66.3702 4.56846 67.3785 4.89394 68.0434 5.54489C68.7082 6.17415 69.0406 7.16143 69.0406 8.50673C69.0406 9.67845 68.8744 10.9261 68.542 12.2497C68.2318 13.5516 67.9104 14.8969 67.578 16.2856C67.2456 17.6526 67.0794 19.0088 67.0794 20.3541C67.0794 21.6994 67.312 22.6867 67.7774 23.3159C66.6029 24.3792 65.384 24.9108 64.1209 24.9108C62.7247 24.9108 61.7275 24.5636 61.1291 23.8692C60.5308 23.1749 60.2316 22.1768 60.2316 20.8749C60.2316 20.1588 60.3314 19.3668 60.5308 18.4989C60.7303 17.6093 60.9629 16.7088 61.2289 15.7974C61.4948 14.8861 61.7275 14.029 61.9269 13.2262C62.1264 12.4233 62.2261 11.729 62.2261 11.1431C62.2261 10.6874 62.1374 10.3294 61.9602 10.069C61.805 9.80864 61.517 9.67845 61.0959 9.67845C60.4976 9.67845 59.7995 9.93883 59.0017 10.4596C58.2039 10.9804 57.4172 11.7181 56.6416 12.6728C55.8881 13.6059 55.2565 14.7233 54.7468 16.0253C54.2592 17.3272 54.0155 18.7701 54.0155 20.3541C54.0155 21.6994 54.2482 22.6867 54.7136 23.3159C53.5391 24.3792 52.3202 24.9108 51.057 24.9108ZM78.076 24.9108C76.835 24.9108 75.7381 24.5961 74.7851 23.9669C73.8543 23.3377 73.1342 22.448 72.6244 21.298C72.1147 20.148 71.8599 18.8026 71.8599 17.2621C71.8599 15.4611 72.1812 13.7903 72.8239 12.2497C73.4887 10.7092 74.3973 9.36382 75.5496 8.21381C76.7242 7.06379 78.0982 6.17415 79.6716 5.54489C81.2451 4.89394 82.9514 4.56846 84.7907 4.56846C85.3226 4.56846 85.7769 4.59017 86.1536 4.63356C86.5525 4.65526 86.9736 4.72036 87.4168 4.82884C87.5498 5.4364 87.6274 5.96801 87.6495 6.42368C88.1593 6.09821 88.7244 5.84867 89.3448 5.67509C89.9654 5.4798 90.5415 5.38216 91.0734 5.38216C92.6912 5.38216 93.5 6.23924 93.5 7.95342C93.5 8.51758 93.3892 9.28788 93.1676 10.2643C92.9681 11.219 92.7244 12.2823 92.4363 13.454C92.1703 14.604 91.9266 15.7866 91.705 17.0017C91.5055 18.1951 91.4058 19.3126 91.4058 20.3541C91.4058 21.7645 91.7493 22.7518 92.4363 23.3159C91.1953 24.3792 89.8767 24.9108 88.4805 24.9108C87.1953 24.9108 86.2423 24.5202 85.6218 23.7391C85.0234 22.9579 84.7243 21.7428 84.7243 20.0937L84.3919 19.931C83.7935 21.4933 82.9292 22.7193 81.799 23.6089C80.691 24.4768 79.45 24.9108 78.076 24.9108ZM80.7021 18.9871C81.5663 18.9871 82.4085 18.6833 83.2284 18.0758C84.0484 17.4682 84.7354 16.6328 85.2894 15.5696C85.378 14.7233 85.4667 13.9314 85.5553 13.1936C85.6662 12.4342 85.7991 11.6313 85.9542 10.7851C86.1316 9.93883 86.342 8.9407 86.5858 7.79069C85.4556 7.79069 84.3808 8.00767 83.3614 8.44164C82.3641 8.85391 81.4666 9.42892 80.6688 10.1667C79.871 10.9044 79.2394 11.7507 78.7741 12.7054C78.3309 13.6385 78.1092 14.6257 78.1092 15.6672C78.1092 16.7305 78.3309 17.555 78.7741 18.1409C79.2394 18.705 79.8822 18.9871 80.7021 18.9871Z" fill="#BF3FAA"/>
</svg>
